<?xml version="1.0" encoding="UTF-8"?>
<svg id="Layer_2" data-name="Layer 2" xmlns="http://www.w3.org/2000/svg" viewBox="0 0 182.07 182.07">
  <defs>
    <style>
      .cls-1 {
        fill: #e2e6ce;
      }

      .cls-2 {
        fill: #101111;
      }

      .cls-3 {
        fill: #bab0d7;
      }
    </style>
  </defs>
  <g id="iteration">
    <g>
      <circle class="cls-3" cx="91.04" cy="91.04" r="91.04"/>
      <g>
        <path class="cls-2" d="M128.98,134.27c-2.38-2.3-5.1-5.08-7.16-7.62-3.95-4.67-7.05-10.14-10.31-15.32-5.85-9.53-12.77-16.03-22-21.55,15.17-11.96,27.73-27.46,35.05-45.41,0,0-1.11-.83-1.11-.83-3.63,2.58-6.87,5.4-10.25,8.18-7.6,6.26-15.13,12.51-23.01,18.24-3.12,2.24-6.58,4.62-9.83,6.88-3.49-12.3-10.69-25.29-17.98-33.01l-1.27.53c.07,4.26.53,8.37.99,12.53.78,7,2.38,16.61,3.49,23.59,1.36,7.72,1.4,12.85-.65,19.92-2.67,9.83-4.55,20.46-4.33,30.79.04,2.13.15,4.26.46,6.43,0,0,1.34.33,1.34.33,4.72-6.83,8.46-14.28,12.03-21.67,1.95-4.21,4.09-8.59,5.69-13.14,1.08.59,2.17,1.16,3.23,1.74,4.39,2.47,8.41,5.36,12.15,8.77,4.12,3.83,7.75,8.14,11.89,12.03,6.62,6.33,15.24,11.16,24.11,12.86l.64-1.26c-1.05-1.06-2.13-2.04-3.18-3.01Z"/>
        <circle class="cls-1" cx="78.14" cy="89.16" r="3.48"/>
      </g>
    </g>
  </g>
</svg>