<svg width="372" height="150" viewBox="0 0 372 150" fill="none" xmlns="http://www.w3.org/2000/svg">
<path d="M14.937 64H0.405762V0.425781H14.937V11.2788C14.937 16.8643 14.6191 21.042 13.4839 27.3086L14.3921 27.6265L28.106 0.425781H43.0913L29.4683 25.1289L43.6816 64H27.8335L19.478 36.6631L14.937 44.2012V64ZM61.4824 12.0508H46.8604V1.33398H61.4824V12.0508ZM61.3916 64H47.042V16.3193H61.3916V64ZM81.5537 64H67.2041V16.3193H81.145C81.2812 18.6353 80.8271 20.8604 78.9653 25.8101L79.7827 26.2188C84.0967 18.4536 87.8203 15.6836 93.4058 15.6836C99.5361 15.6836 102.352 19.8159 100.853 26.4004L101.716 26.7183C104.985 19.1802 109.299 15.6836 115.838 15.6836C122.741 15.6836 125.965 19.498 125.965 27.4448V64H111.615V30.124C111.615 27.3086 110.571 25.7646 108.573 25.7646C105.53 25.7646 103.759 29.7607 103.759 36.209V64H89.4097V30.124C89.4097 27.354 88.3198 25.7192 86.3672 25.7192C83.3701 25.7192 81.5537 29.6699 81.5537 36.2544V64ZM180.275 64H144.81V0.425781H179.458V12.3232H159.341V26.1733H177.778V36.5723H159.341V52.1025H180.275V64ZM207.885 16.3193H222.234V64H208.339C208.384 61.0938 208.838 58.8687 210.473 54.5093L209.61 54.1006C206.432 61.2754 201.891 64.6357 195.488 64.6357C188.268 64.6357 184.726 60.9121 184.726 53.4194V16.3193H199.075V50.1499C199.075 53.1016 200.21 54.6001 202.436 54.6001C205.887 54.6001 207.885 50.4224 207.885 43.4746V16.3193ZM242.396 64H228.047V16.3193H241.942C241.897 19.2256 241.443 21.4507 239.808 25.8101L240.671 26.2188C243.85 19.0439 248.391 15.6836 254.793 15.6836C262.014 15.6836 265.556 19.4072 265.556 26.8999V64H251.206V30.1694C251.206 27.2178 250.071 25.7192 247.846 25.7192C244.395 25.7192 242.396 29.897 242.396 36.8447V64ZM285.627 12.0508H271.005V1.33398H285.627V12.0508ZM285.536 64H271.187V16.3193H285.536V64ZM309.694 65.1807C296.752 65.1807 290.486 58.1421 290.486 43.8833V36.2998C290.486 22.1318 296.843 15.1387 309.785 15.1387C322.046 15.1387 328.449 20.9966 328.585 34.4834L314.281 35.6641C314.235 27.5811 312.782 25.0835 309.74 25.0835C306.606 25.0835 305.108 27.8081 305.108 33.6206V46.6079C305.108 52.4658 306.652 55.1904 309.831 55.1904C312.873 55.1904 314.372 52.6475 314.417 44.2466L329.039 45.4727C328.721 59.2319 321.819 65.1807 309.694 65.1807ZM371.089 43.7017H347.067V47.5161C347.067 52.7383 348.747 55.2358 352.334 55.2358C355.377 55.2358 357.375 53.3286 357.511 46.9712L371.089 48.2881C370.68 59.7314 363.369 65.1807 352.153 65.1353C339.62 65.1353 332.899 57.8696 332.899 44.3828V36.1636C332.899 22.5405 339.71 15.1841 352.562 15.1841C364.822 15.1841 371.407 22.2227 371.407 34.8467C371.407 37.208 371.316 40.9316 371.089 43.7017ZM352.244 25.0835C348.747 25.0835 347.067 27.9443 347.067 33.3936V35.21H357.057V31.9404C357.057 27.2632 355.468 25.0835 352.244 25.0835ZM14.937 134H0.405762V70.4258H22.3389C35.1899 70.4258 41.5474 76.4199 41.5474 88.6353V93.3579C41.5474 105.437 35.1899 111.386 22.3389 111.386H14.937V134ZM14.937 81.6875V100.124H21.0674C25.3359 100.124 27.3794 98.0806 27.3794 93.7666V88.2266C27.3794 83.7764 25.3359 81.6875 21.0674 81.6875H14.937ZM55.3066 135.135C47.9502 135.135 43.6362 130.413 43.6362 123.011V122.693C43.6362 111.794 51.9009 108.661 59.1211 106.663L66.2959 104.62V99.7153C66.2959 96.582 65.2515 95.0835 62.8447 95.0835C60.0293 95.0835 58.6216 97.1724 58.8032 104.302L44.5898 103.394C44.3628 91.5415 50.3115 85.1841 62.981 85.1841C74.3335 85.1841 80.5547 90.0884 80.5547 99.7607V122.284C80.5547 124.736 81.1904 125.19 84.1421 125.236L82.6436 134.772C81.7808 134.999 80.4639 135.135 79.4648 135.135C71.1094 135.135 68.4302 132.229 69.4746 124.464L68.5664 124.282C66.9316 131.502 62.7539 135.135 55.3066 135.135ZM61.1646 124.509C64.2979 124.509 66.2959 121.421 66.2959 116.744V112.839L63.2988 113.838C60.3926 114.837 58.0767 116.79 58.0767 120.15V120.559C58.0767 123.192 59.1211 124.509 61.1646 124.509ZM113.659 85.6836C121.969 85.6836 126.192 91.9502 126.192 104.71V115.609C126.192 128.369 121.969 134.636 113.75 134.636C106.983 134.636 103.078 130.821 100.581 124.237L99.6724 124.691C101.398 129.868 102.079 133.546 102.079 138.269V149.894H87.7295V86.3193H101.716C101.67 88.1812 100.989 91.269 99.5361 95.6738L100.49 95.9917C102.896 89.4072 106.711 85.6836 113.659 85.6836ZM107.256 95.356C103.805 95.356 102.079 98.7617 102.079 105.437V114.792C102.079 121.467 103.805 124.963 107.256 124.963C110.298 124.963 111.842 122.148 111.842 116.335V103.893C111.842 98.1714 110.298 95.356 107.256 95.356ZM141.223 135.135C133.866 135.135 129.552 130.413 129.552 123.011V122.693C129.552 111.794 137.817 108.661 145.037 106.663L152.212 104.62V99.7153C152.212 96.582 151.167 95.0835 148.761 95.0835C145.945 95.0835 144.538 97.1724 144.719 104.302L130.506 103.394C130.279 91.5415 136.228 85.1841 148.897 85.1841C160.25 85.1841 166.471 90.0884 166.471 99.7607V122.284C166.471 124.736 167.106 125.19 170.058 125.236L168.56 134.772C167.697 134.999 166.38 135.135 165.381 135.135C157.025 135.135 154.346 132.229 155.391 124.464L154.482 124.282C152.848 131.502 148.67 135.135 141.223 135.135ZM147.081 124.509C150.214 124.509 152.212 121.421 152.212 116.744V112.839L149.215 113.838C146.309 114.837 143.993 116.79 143.993 120.15V120.559C143.993 123.192 145.037 124.509 147.081 124.509Z" fill="#030304"/>
</svg>
