<svg width="1409" height="217" viewBox="0 0 1409 217" fill="none" xmlns="http://www.w3.org/2000/svg">
<path d="M39.6035 173H0.228516V0.734375H39.6035V30.1426C39.6035 45.2773 38.7422 56.5977 35.666 73.5781L38.127 74.4395L75.2871 0.734375H115.893L78.9785 67.6719L117.492 173H74.5488L51.9082 98.9258L39.6035 119.352V173ZM158.167 32.2344H118.545V3.19531H158.167V32.2344ZM157.92 173H119.038V43.8008H157.92V173ZM204.993 173H166.11V43.8008H203.886C204.255 50.0762 203.025 56.1055 197.98 69.5176L200.194 70.625C211.884 49.584 221.974 42.0781 237.109 42.0781C253.72 42.0781 261.349 53.2754 257.288 71.1172L259.626 71.9785C268.485 51.5527 280.175 42.0781 297.894 42.0781C316.597 42.0781 325.333 52.4141 325.333 73.9473V173H286.45V81.207C286.45 73.5781 283.62 69.3945 278.206 69.3945C269.962 69.3945 265.163 80.2227 265.163 97.6953V173H226.28V81.207C226.28 73.7012 223.327 69.2715 218.036 69.2715C209.915 69.2715 204.993 79.9766 204.993 97.8184V173ZM457.377 173H361.278V0.734375H455.162V32.9727H400.653V70.502H450.61V98.6797H400.653V140.762H457.377V173ZM524.63 43.8008H563.513V173H525.86C525.983 165.125 527.214 159.096 531.643 147.283L529.305 146.176C520.692 165.617 508.388 174.723 491.038 174.723C471.473 174.723 461.876 164.633 461.876 144.33V43.8008H500.759V135.471C500.759 143.469 503.835 147.529 509.864 147.529C519.216 147.529 524.63 136.209 524.63 117.383V43.8008ZM610.585 173H571.703V43.8008H609.355C609.232 51.6758 608.001 57.7051 603.572 69.5176L605.91 70.625C614.523 51.1836 626.828 42.0781 644.177 42.0781C663.742 42.0781 673.339 52.168 673.339 72.4707V173H634.456V81.3301C634.456 73.332 631.38 69.2715 625.351 69.2715C615.999 69.2715 610.585 80.5918 610.585 99.418V173ZM720.166 32.2344H680.545V3.19531H720.166V32.2344ZM719.92 173H681.037V43.8008H719.92V173ZM777.821 176.199C742.752 176.199 725.772 157.127 725.772 118.49V97.9414C725.772 59.5508 742.999 40.6016 778.067 40.6016C811.29 40.6016 828.639 56.4746 829.008 93.0195L790.249 96.2188C790.125 74.3164 786.188 67.5488 777.944 67.5488C769.454 67.5488 765.393 74.9316 765.393 90.6816V125.873C765.393 141.746 769.577 149.129 778.19 149.129C786.434 149.129 790.495 142.238 790.618 119.475L830.239 122.797C829.377 160.08 810.674 176.199 777.821 176.199ZM936.62 117.998H871.528V128.334C871.528 142.484 876.081 149.252 885.802 149.252C894.046 149.252 899.46 144.084 899.829 126.857L936.62 130.426C935.513 161.434 915.702 176.199 885.31 176.076C851.349 176.076 833.138 156.389 833.138 119.844V97.5723C833.138 60.6582 851.595 40.7246 886.417 40.7246C919.64 40.7246 937.482 59.7969 937.482 94.0039C937.482 100.402 937.235 110.492 936.62 117.998ZM885.556 67.5488C876.081 67.5488 871.528 75.3008 871.528 90.0664V94.9883H898.599V86.1289C898.599 73.4551 894.292 67.5488 885.556 67.5488ZM1010.96 173H971.58V0.734375H1031.01C1065.83 0.734375 1083.06 16.9766 1083.06 50.0762V62.873C1083.06 95.6035 1065.83 111.723 1031.01 111.723H1010.96V173ZM1010.96 31.25V81.207H1027.57C1039.13 81.207 1044.67 75.6699 1044.67 63.9805V48.9688C1044.67 36.9102 1039.13 31.25 1027.57 31.25H1010.96ZM1112.78 176.076C1092.85 176.076 1081.16 163.279 1081.16 143.223V142.361C1081.16 112.83 1103.56 104.34 1123.12 98.9258L1142.56 93.3887V80.0996C1142.56 71.6094 1139.73 67.5488 1133.21 67.5488C1125.58 67.5488 1121.77 73.209 1122.26 92.5273L1083.74 90.0664C1083.13 57.9512 1099.25 40.7246 1133.58 40.7246C1164.34 40.7246 1181.2 54.0137 1181.2 80.2227V141.254C1181.2 147.898 1182.92 149.129 1190.92 149.252L1186.86 175.092C1184.52 175.707 1180.95 176.076 1178.24 176.076C1155.6 176.076 1148.34 168.201 1151.17 147.16L1148.71 146.668C1144.28 166.232 1132.96 176.076 1112.78 176.076ZM1128.66 147.283C1137.15 147.283 1142.56 138.916 1142.56 126.242V115.66L1134.44 118.367C1126.57 121.074 1120.29 126.365 1120.29 135.471V136.578C1120.29 143.715 1123.12 147.283 1128.66 147.283ZM1263.34 42.0781C1285.86 42.0781 1297.3 59.0586 1297.3 93.6348V123.166C1297.3 157.742 1285.86 174.723 1263.59 174.723C1245.25 174.723 1234.67 164.387 1227.9 146.545L1225.44 147.775C1230.12 161.803 1231.96 171.77 1231.96 184.566V216.066H1193.08V43.8008H1230.98C1230.85 48.8457 1229.01 57.2129 1225.07 69.1484L1227.66 70.0098C1234.18 52.168 1244.51 42.0781 1263.34 42.0781ZM1245.99 68.2871C1236.64 68.2871 1231.96 77.5156 1231.96 95.6035V120.951C1231.96 139.039 1236.64 148.514 1245.99 148.514C1254.23 148.514 1258.42 140.885 1258.42 125.135V91.4199C1258.42 75.916 1254.23 68.2871 1245.99 68.2871ZM1330.47 176.076C1310.54 176.076 1298.85 163.279 1298.85 143.223V142.361C1298.85 112.83 1321.24 104.34 1340.8 98.9258L1360.25 93.3887V80.0996C1360.25 71.6094 1357.42 67.5488 1350.89 67.5488C1343.27 67.5488 1339.45 73.209 1339.94 92.5273L1301.43 90.0664C1300.81 57.9512 1316.93 40.7246 1351.26 40.7246C1382.03 40.7246 1398.88 54.0137 1398.88 80.2227V141.254C1398.88 147.898 1400.61 149.129 1408.6 149.252L1404.54 175.092C1402.2 175.707 1398.64 176.076 1395.93 176.076C1373.29 176.076 1366.03 168.201 1368.86 147.16L1366.4 146.668C1361.97 166.232 1350.65 176.076 1330.47 176.076ZM1346.34 147.283C1354.83 147.283 1360.25 138.916 1360.25 126.242V115.66L1352.12 118.367C1344.25 121.074 1337.97 126.365 1337.97 135.471V136.578C1337.97 143.715 1340.8 147.283 1346.34 147.283Z" fill="#030304"/>
</svg>
