<svg width="1411" height="182" viewBox="0 0 1411 182" fill="none" xmlns="http://www.w3.org/2000/svg">
<path d="M30.737 139H0.176001V8.704H30.737V61.774H32.567L74.84 8.704H111.074L58.736 71.29L112.172 139H75.755L32.567 81.538H30.737V139ZM133.819 32.311C124.303 32.311 117.532 25.723 117.532 16.39C117.532 7.23999 124.303 0.468995 133.819 0.468995C143.335 0.468995 150.106 7.23999 150.106 16.39C150.106 25.723 143.335 32.311 133.819 32.311ZM147.361 139H120.277V45.304H147.361V139ZM190.455 139H163.371V45.304H190.272V59.212H192.102C197.409 49.147 207.291 42.376 219.186 42.376C231.447 42.376 242.976 49.513 247.917 60.127H249.747C255.42 49.33 265.851 42.559 279.21 42.559C299.889 42.559 314.712 58.297 314.712 80.989V139H287.628V85.564C287.628 74.218 280.491 65.8 270.06 65.617C259.446 65.617 252.126 73.852 252.126 85.564V139H224.859V85.564C224.859 73.486 218.271 65.617 208.023 65.617C197.409 65.617 190.455 73.486 190.455 85.564V139ZM468.749 139H370.844V8.704H466.919V33.226H400.49V61.957H461.978V83.368H400.49V114.478H468.749V139ZM543.51 45.304H570.594V139H543.51V125.824H541.68C534.726 136.438 525.759 141.745 514.413 141.745C493.185 141.745 479.094 125.275 479.094 102.766V45.304H506.178V98.923C506.178 110.452 512.766 118.504 523.746 118.504C534.543 118.504 543.51 109.903 543.51 98.008V45.304ZM613.132 139H586.048V45.304H613.132V58.48H614.962C621.916 47.866 630.883 42.559 642.229 42.559C663.457 42.559 677.548 59.029 677.548 81.538V139H650.464V85.381C650.464 73.852 643.876 65.8 632.896 65.8C622.099 65.8 613.132 74.401 613.132 86.296V139ZM705.994 32.311C696.478 32.311 689.707 25.723 689.707 16.39C689.707 7.23999 696.478 0.468995 705.994 0.468995C715.51 0.468995 722.281 7.23999 722.281 16.39C722.281 25.723 715.51 32.311 705.994 32.311ZM719.536 139H692.452V45.304H719.536V139ZM782.394 141.928C752.565 141.928 731.52 121.798 731.52 92.152C731.52 62.323 752.199 42.376 782.394 42.376C807.831 42.376 827.229 56.65 830.34 78.793L805.086 82.087C802.707 71.839 793.191 64.702 782.76 64.702C769.035 64.702 758.604 76.048 758.604 92.152C758.604 108.256 768.852 119.602 782.577 119.602C793.374 119.602 802.524 112.465 805.086 102.4L830.523 105.511C827.046 127.654 807.465 141.928 782.394 141.928ZM890.049 141.928C859.671 141.928 838.26 121.615 838.26 91.42C838.26 62.14 859.671 42.376 889.866 42.376C919.695 42.376 940.191 62.323 940.191 91.786C940.191 94.165 940.191 98.008 939.825 100.021H866.259C868.455 113.197 877.788 121.798 891.147 121.798C901.578 121.798 909.63 116.674 913.656 108.988L936.714 114.844C930.858 131.68 912.741 141.928 890.049 141.928ZM866.076 83.185H912.558C910.911 71.29 901.761 62.506 889.134 62.506C876.873 62.506 868.272 70.741 866.076 83.185ZM1023.84 139H993.827V8.704H1051.11C1082.95 8.704 1103.44 25.54 1103.26 52.441C1103.26 79.159 1082.58 96.361 1050.92 96.361H1023.84V139ZM1023.84 31.762V73.303H1048.54C1063.55 73.303 1072.88 65.068 1072.88 52.441C1072.88 39.814 1063.37 31.762 1048.54 31.762H1023.84ZM1138.29 141.379C1119.07 141.379 1105.9 131.314 1105.9 114.478C1105.9 96.91 1120.72 86.113 1150.18 82.453L1170.13 80.074V76.231C1170.13 67.264 1163.91 61.225 1153.11 61.225C1143.23 61.225 1136.46 66.715 1136.64 76.048H1110.11C1110.11 55.552 1127.13 42.376 1153.48 42.376C1180.2 42.376 1197.21 55.918 1197.21 77.146V139H1170.13V127.105H1168.3C1162.44 136.438 1151.65 141.379 1138.29 141.379ZM1147.26 123.628C1160.8 123.628 1170.13 114.844 1170.13 103.132V96.544L1150.92 98.923C1137.56 100.57 1132.43 105.877 1132.43 112.282C1132.43 119.236 1137.92 123.628 1147.26 123.628ZM1269.55 42.376C1295.35 42.376 1313.83 62.323 1313.83 92.152C1313.83 121.798 1295.17 141.928 1269.55 141.928C1256.74 141.928 1246.49 136.804 1239.9 127.288H1238.07V181.09H1210.99V45.304H1238.07V57.199H1239.9C1246.49 47.683 1256.19 42.376 1269.55 42.376ZM1261.86 65.617C1247.41 65.617 1236.97 77.146 1236.97 92.152C1236.97 107.158 1247.41 118.87 1261.86 118.87C1276.32 118.87 1286.57 107.158 1286.57 92.152C1286.57 76.963 1276.14 65.617 1261.86 65.617ZM1351.41 141.379C1332.2 141.379 1319.02 131.314 1319.02 114.478C1319.02 96.91 1333.84 86.113 1363.31 82.453L1383.25 80.074V76.231C1383.25 67.264 1377.03 61.225 1366.24 61.225C1356.35 61.225 1349.58 66.715 1349.77 76.048H1323.23C1323.23 55.552 1340.25 42.376 1366.6 42.376C1393.32 42.376 1410.34 55.918 1410.34 77.146V139H1383.25V127.105H1381.42C1375.57 136.438 1364.77 141.379 1351.41 141.379ZM1360.38 123.628C1373.92 123.628 1383.25 114.844 1383.25 103.132V96.544L1364.04 98.923C1350.68 100.57 1345.56 105.877 1345.56 112.282C1345.56 119.236 1351.05 123.628 1360.38 123.628Z" fill="black"/>
</svg>
