<?xml version="1.0" encoding="UTF-8"?>
<svg id="Layer_2" data-name="Layer 2" xmlns="http://www.w3.org/2000/svg" viewBox="0 0 500 169.78">
  <defs>
    <style>
      .cls-1 {
        fill: #000201;
        stroke-width: 0px;
      }
    </style>
  </defs>
  <g id="Layer_1-2" data-name="Layer 1">
    <g>
      <path class="cls-1" d="M0,169.78V0h39.18v69.15L95.71,0h46.45l-67.1,81.55,68.5,88.23h-46.68l-34.61-44.91c-7.51-9.74-23.09-4.43-23.09,7.87v37.04H0Z"/>
      <rect class="cls-1" x="166.04" width="39.18" height="169.78"/>
      <path class="cls-1" d="M231.34,169.78V0h55.12l44.82,121.27h2.4L378.26,0h56.44v169.78h-39.18v-76.22c0-8.6-11.88-10.89-15.07-2.9l-31.61,79.12h-31.65l-31.61-79.42c-3.18-8-15.07-5.72-15.07,2.89v76.53h-39.18Z"/>
      <circle class="cls-1" cx="479.48" cy="149.25" r="20.52"/>
      <circle class="cls-1" cx="479.48" cy="20.52" r="20.52"/>
    </g>
  </g>
</svg>