<?xml version="1.0" encoding="UTF-8"?>
<svg id="Layer_2" data-name="Layer 2" xmlns="http://www.w3.org/2000/svg" viewBox="0 0 91.88 121.99">
  <defs>
    <style>
      .cls-1 {
        fill: #e2e6ce;
      }

      .cls-2 {
        fill: #101111;
      }
    </style>
  </defs>
  <g id="iteration">
    <g>
      <path class="cls-2" d="M87.8,116.51c-3.05-2.95-6.55-6.53-9.2-9.78-5.07-6-9.05-13.02-13.23-19.67-7.51-12.24-16.39-20.59-28.25-27.67C56.6,44.02,72.72,24.11,82.13,1.07,82.13,1.07,80.71,0,80.71,0c-4.67,3.31-8.82,6.94-13.16,10.51-9.76,8.04-19.43,16.06-29.55,23.42-4.01,2.88-8.45,5.93-12.62,8.83C20.89,26.97,11.64,10.28,2.28.37l-1.63.68c.09,5.47.68,10.75,1.28,16.09,1.01,8.99,3.06,21.33,4.49,30.3,1.75,9.91,1.8,16.5-.83,25.58C2.15,85.64-.26,99.29.02,112.55c.05,2.73.2,5.47.59,8.26,0,0,1.72.42,1.72.42,6.07-8.76,10.87-18.33,15.45-27.83,2.5-5.41,5.25-11.03,7.3-16.87,1.38.76,2.78,1.49,4.15,2.23,5.64,3.17,10.8,6.88,15.61,11.26,5.29,4.92,9.96,10.46,15.27,15.45,8.5,8.13,19.56,14.33,30.96,16.52l.82-1.62c-1.35-1.36-2.73-2.62-4.08-3.86Z"/>
      <circle class="cls-1" cx="22.52" cy="58.58" r="4.47"/>
    </g>
  </g>
</svg>